<svg width="358" height="339" viewBox="0 0 358 339" fill="none" xmlns="http://www.w3.org/2000/svg">
<g clip-path="url(#clip0_207_40)">
<path d="M159.391 31.4458H20.5894C15.2961 31.4458 10.9878 27.139 10.9878 21.8474C10.9878 16.5557 15.2961 12.2489 20.5894 12.2489H159.391C164.685 12.2489 168.993 16.5557 168.993 21.8474C168.993 27.139 164.685 31.4458 159.391 31.4458ZM20.5894 13.4354C15.9488 13.4354 12.1746 17.2083 12.1746 21.8474C12.1746 26.4864 15.9488 30.2594 20.5894 30.2594H159.391C164.032 30.2594 167.806 26.4864 167.806 21.8474C167.806 17.2083 164.032 13.4354 159.391 13.4354H20.5894Z" fill="#A6A6A6"/>
<path d="M159.392 143.774H20.5896C15.4564 143.774 11.2847 139.603 11.2847 134.472C11.2847 129.341 15.4564 125.17 20.5896 125.17H159.392C164.525 125.17 168.696 129.341 168.696 134.472C168.696 139.603 164.525 143.774 159.392 143.774Z" fill="#458FF6"/>
<path d="M159.391 68.9854H20.5894C15.2961 68.9854 10.9878 64.6785 10.9878 59.3869C10.9878 54.0953 15.2961 49.7885 20.5894 49.7885H159.391C164.685 49.7885 168.993 54.0953 168.993 59.3869C168.993 64.6785 164.685 68.9854 159.391 68.9854ZM20.5894 50.9749C15.9488 50.9749 12.1746 54.7479 12.1746 59.3869C12.1746 64.026 15.9488 67.7989 20.5894 67.7989H159.391C164.032 67.7989 167.806 64.026 167.806 59.3869C167.806 54.7479 164.032 50.9749 159.391 50.9749H20.5894Z" fill="#A6A6A6"/>
<path d="M159.391 106.531H20.5894C15.2961 106.531 10.9878 102.224 10.9878 96.9324C10.9878 91.6408 15.2961 87.334 20.5894 87.334H159.391C164.685 87.334 168.993 91.6408 168.993 96.9324C168.993 102.224 164.685 106.531 159.391 106.531ZM20.5894 88.5204C15.9488 88.5204 12.1746 92.2934 12.1746 96.9324C12.1746 101.571 15.9488 105.344 20.5894 105.344H159.391C164.032 105.344 167.806 101.571 167.806 96.9324C167.806 92.2934 164.032 88.5204 159.391 88.5204H20.5894Z" fill="#A6A6A6"/>
<path d="M15.8187 5.35559H52.1956C53.062 5.35559 53.7682 6.0556 53.7682 6.92765C53.7682 7.79377 53.062 8.49971 52.1956 8.49971H15.8187C14.9523 8.49971 14.2461 7.7997 14.2461 6.92765C14.2461 6.06154 14.9523 5.35559 15.8187 5.35559Z" fill="#A6A6A6"/>
<path d="M15.8187 43.785H52.1956C53.062 43.785 53.7682 44.485 53.7682 45.3511C53.7682 46.2172 53.062 46.9232 52.1956 46.9232H15.8187C14.9523 46.9232 14.2461 46.2231 14.2461 45.357C14.2461 44.4909 14.9523 43.785 15.8187 43.785Z" fill="#A6A6A6"/>
<path d="M15.8187 82.2203H52.1956C53.062 82.2203 53.7682 82.9203 53.7682 83.7924C53.7682 84.6585 53.062 85.3585 52.1956 85.3585H15.8187C14.9523 85.3585 14.2461 84.6585 14.2461 83.7865C14.2461 82.9203 14.9523 82.2203 15.8187 82.2203Z" fill="#A6A6A6"/>
<path d="M274.308 53.4605L261.039 57.8267V38.7307H273.08L274.308 53.4605Z" fill="#FEB0A2"/>
<path d="M262.683 44.0164C269.985 44.0164 275.904 38.0988 275.904 30.7992C275.904 23.4996 269.985 17.582 262.683 17.582C255.381 17.582 249.461 23.4996 249.461 30.7992C249.461 38.0988 255.381 44.0164 262.683 44.0164Z" fill="#FEB0A2"/>
<path d="M266.315 29.4881C264.101 29.4229 262.648 27.1864 261.787 25.1457C260.927 23.105 260.042 20.7617 257.989 19.9194C256.31 19.2312 253.349 23.8881 252.025 22.6482C250.643 21.355 251.99 14.7167 253.455 13.5243C254.921 12.3319 256.927 12.1006 258.814 12.0116C263.419 11.798 268.054 12.1718 272.57 13.115C275.365 13.6964 278.237 14.5744 280.255 16.5913C282.806 19.1541 283.459 23.016 283.643 26.6288C283.833 30.3246 283.619 34.1925 281.821 37.4256C280.023 40.6587 276.261 43.0434 272.653 42.2189C272.291 40.2612 272.659 38.2502 272.801 36.2569C272.938 34.2696 272.795 32.1221 271.579 30.5382C270.368 28.9542 267.769 28.3254 266.356 29.7314" fill="#2F2E43"/>
<path d="M282.581 34.0679C283.904 33.1009 285.489 32.2882 287.114 32.4899C288.871 32.7035 290.361 34.1509 290.812 35.8654C291.263 37.5798 290.758 39.4663 289.666 40.8663C288.58 42.2663 286.96 43.1918 285.251 43.6545C284.26 43.9214 283.174 44.0342 282.231 43.6308C280.842 43.0316 280.088 41.2578 280.634 39.846" fill="#2F2E43"/>
<path d="M231.985 158.427C231.101 162.769 232.721 166.738 235.593 167.29C238.465 167.841 241.51 164.762 242.388 160.42C242.762 158.688 242.702 156.896 242.216 155.188L253.153 87.1145L239.474 84.5399L234.193 153.651C233.071 155.051 232.318 156.689 231.985 158.433V158.427Z" fill="#FEB0A2"/>
<path d="M260.897 49.0648H251.562C244.963 50.0673 243.171 53.5852 241.67 60.087C239.379 70.0058 236.454 83.2111 237.035 83.4068C237.967 83.7153 253.859 91.19 261.959 89.4815L260.897 49.0648Z" fill="#F645E4"/>
<path d="M269.923 265.896H257.497V283.521H269.923V265.896Z" fill="#FEB4A3"/>
<path d="M245.396 294.187C244.091 294.187 242.928 294.158 242.05 294.075C238.75 293.772 235.599 291.334 234.015 289.91C233.302 289.269 233.077 288.249 233.445 287.371C233.712 286.742 234.24 286.268 234.899 286.084L243.622 283.592L257.746 274.065L257.906 274.35C257.965 274.456 259.354 276.954 259.817 278.639C259.995 279.279 259.947 279.813 259.68 280.229C259.496 280.513 259.235 280.679 259.027 280.774C259.283 281.041 260.084 281.587 262.552 281.979C266.154 282.548 266.914 278.817 266.944 278.662L266.967 278.538L267.074 278.467C268.789 277.363 269.846 276.859 270.208 276.966C270.433 277.031 270.813 277.15 271.839 287.312C271.94 287.632 272.658 289.969 272.172 292.206C271.644 294.638 261.009 293.802 258.879 293.612C258.82 293.618 250.856 294.187 245.402 294.187H245.396Z" fill="#2F2E43"/>
<path d="M305.307 252.049L294.763 258.622L304.092 273.577L314.636 267.004L305.307 252.049Z" fill="#FEB0A2"/>
<path d="M291.304 291.773C289.844 291.773 288.503 291.595 287.548 291.429C286.61 291.263 285.874 290.515 285.72 289.578C285.613 288.902 285.809 288.219 286.272 287.715L292.354 280.988L299.297 265.433L299.582 265.588C299.689 265.647 302.187 267.029 303.475 268.216C303.968 268.667 304.211 269.147 304.199 269.639C304.193 269.984 304.063 270.256 303.932 270.452C304.288 270.547 305.255 270.583 307.558 269.61C310.917 268.192 309.587 264.621 309.528 264.472L309.481 264.354L309.534 264.241C310.406 262.396 311.029 261.411 311.397 261.31C311.629 261.245 312.009 261.144 318.257 269.23C318.513 269.444 320.358 271.051 321.13 273.205C321.966 275.548 312.501 280.466 310.596 281.427C310.537 281.474 300.633 288.67 296.562 290.717C294.948 291.53 293.037 291.779 291.298 291.779L291.304 291.773Z" fill="#2F2E43"/>
<path d="M279.074 118.508H244.281L241.124 150.863L254.939 270.411H272.7L265.597 201.365L294.408 263.701L310.193 252.655L287.696 194.459C287.696 194.459 295.731 143.762 289.417 131.132C283.103 118.508 279.074 118.508 279.074 118.508Z" fill="#23222B"/>
<path d="M296.384 120.478H241.124L257.704 49.0648H281.78L296.384 120.478Z" fill="#F645E4"/>
<path d="M301.356 158.427C302.241 162.769 300.621 166.738 297.748 167.289C294.876 167.841 291.832 164.762 290.954 160.42C290.58 158.688 290.639 156.896 291.126 155.188L280.189 87.1145L293.867 84.5399L299.149 153.651C300.27 155.051 301.024 156.688 301.356 158.433V158.427Z" fill="#FEB0A2"/>
<path d="M272.445 49.0648H281.78C288.378 50.0673 290.171 53.5852 291.672 60.087C293.963 70.0058 296.888 83.2111 296.307 83.4068C295.375 83.7153 279.483 91.19 271.383 89.4815L272.445 49.0648Z" fill="#F645E4"/>
</g>
<defs>
<clipPath id="clip0_207_40">
<rect width="358" height="339" fill="white"/>
</clipPath>
</defs>
</svg>
