<svg width="24" height="23" viewBox="0 0 24 23" fill="none" xmlns="http://www.w3.org/2000/svg">
<g style="mix-blend-mode:darken">
<path d="M21.4607 22.7064C21.6523 22.8969 21.909 23.0023 22.1754 23C22.4419 22.9976 22.6967 22.8876 22.8851 22.6936C23.0735 22.4997 23.1804 22.2373 23.1827 21.963C23.185 21.6888 23.0826 21.4245 22.8975 21.2273L21.4607 22.7064ZM17.0984 9.41435C17.0984 11.3563 16.349 13.2188 15.0151 14.592C13.6812 15.9652 11.872 16.7366 9.98552 16.7366V18.8287C12.411 18.8287 14.7371 17.8368 16.4521 16.0713C18.1672 14.3058 19.1307 11.9112 19.1307 9.41435H17.0984ZM9.98552 16.7366C8.09905 16.7366 6.28985 15.9652 4.95592 14.592C3.62199 13.2188 2.8726 11.3563 2.8726 9.41435H0.840332C0.840332 11.9112 1.80384 14.3058 3.51889 16.0713C5.23395 17.8368 7.56006 18.8287 9.98552 18.8287V16.7366ZM2.8726 9.41435C2.8726 7.47236 3.62199 5.60991 4.95592 4.23672C6.28985 2.86353 8.09905 2.09208 9.98552 2.09208V0C7.56006 0 5.23395 0.991866 3.51889 2.7574C1.80384 4.52293 0.840332 6.91751 0.840332 9.41435H2.8726ZM9.98552 2.09208C11.872 2.09208 13.6812 2.86353 15.0151 4.23672C16.349 5.60991 17.0984 7.47236 17.0984 9.41435H19.1307C19.1307 6.91751 18.1672 4.52293 16.4521 2.7574C14.7371 0.991866 12.411 0 9.98552 0V2.09208ZM14.8558 15.9071L21.4607 22.7064L22.8975 21.2273L16.2926 14.428L14.8558 15.9071Z" fill="#458FF6"/>
</g>
</svg>
